<?xml version="1.0" encoding="UTF-8" standalone="no"?>
<svg
   xmlns:dc="http://purl.org/dc/elements/1.1/"
   xmlns:cc="http://creativecommons.org/ns#"
   xmlns:rdf="http://www.w3.org/1999/02/22-rdf-syntax-ns#"
   xmlns:svg="http://www.w3.org/2000/svg"
   xmlns="http://www.w3.org/2000/svg"
   viewBox="0 0 310.66666 282.66666"
   height="282.66666"
   width="310.66666"
   xml:space="preserve"
   id="svg2"
   version="1.1"><metadata
     id="metadata8"><rdf:RDF><cc:Work
         rdf:about=""><dc:format>image/svg+xml</dc:format><dc:type
           rdf:resource="http://purl.org/dc/dcmitype/StillImage" /></cc:Work></rdf:RDF></metadata><defs
     id="defs6" /><g
     transform="matrix(1.3333333,0,0,-1.3333333,0,282.66667)"
     id="g10"><g
       transform="scale(0.1)"
       id="g12"><path
         id="path14"
         style="fill:#35ba9c;fill-opacity:1;fill-rule:evenodd;stroke:none"
         d="m 773.398,1985 c 15.981,-0.35 33.481,-4.34 52.5,-11.99 18.981,-7.7 38.832,-16.53 59.493,-26.53 23.988,-11.99 48.32,-22.65 73.007,-31.99 24.332,-9.33 48.482,-14.18 72.502,-14.49 37.97,-0.35 70,15.16 95.98,46.48 1.67,2 1.83,4.18 0.5,6.53 -1.33,0.97 -2.65,1.48 -3.98,1.48 -1.02,0.35 -1.84,0.16 -2.5,-0.51 -12.7,-6.64 -26.84,-10 -42.5,-10 -18.67,0.36 -38.01,4.18 -58.01,11.53 -20,7.3 -40.66,15.97 -61.992,25.97 -22.347,10.36 -44.687,19.5 -67.027,27.5 -22.66,8.01 -45,12.35 -66.992,13.01 -32.348,0 -60.828,-11.83 -85.508,-35.51 -1.641,-1.99 -1.84,-4.14 -0.473,-6.48 0.981,-1.68 2.301,-2.5 3.981,-2.5 1.019,0.31 1.84,0.66 2.5,0.98 8.32,4.02 17.851,6.17 28.519,6.52 m 432.972,-30.51 c -1.64,0.35 -2.97,-0.15 -3.99,-1.48 -1.33,-2.35 -1.33,-4.53 0,-6.53 26.33,-31.32 58.52,-46.83 96.49,-46.48 24.02,0.31 48.16,5.16 72.5,14.49 24.33,9.34 48.51,20 72.5,31.99 21.01,10.36 41.01,19.18 60,26.53 19.02,7.3 36.52,11.33 52.5,11.99 10.66,-0.35 20.19,-2.5 28.51,-6.52 0.67,-0.67 1.33,-0.98 2,-0.98 1.99,0.31 3.51,1.17 4.49,2.5 1.36,2.34 1.01,4.49 -0.98,6.48 -24.34,23.68 -52.85,35.51 -85.51,35.51 -21.68,-0.66 -43.83,-5 -66.48,-13.01 -22.35,-8 -44.69,-17.14 -67.03,-27.5 -21.33,-10 -41.99,-18.67 -61.99,-25.97 -20,-7.35 -39.34,-11.17 -58.01,-11.53 -15.67,0 -29.81,3.36 -42.5,10 -0.98,0.67 -1.84,0.86 -2.5,0.51 M 731.879,1830.98 c -1.649,0 -3.008,-0.47 -3.988,-1.49 -1.012,-1.33 -1.332,-2.85 -1.012,-4.49 6.672,-28.01 25.351,-41.84 56.012,-41.52 4.648,0 9.839,0.35 15.507,1.01 16.641,2.35 32.301,6.68 46.993,13.01 14.648,6.33 29.339,13.48 43.988,21.48 21.672,13.01 45.66,23.83 71.992,32.5 2.34,0.67 3.508,2.35 3.508,5 -0.348,2.35 -1.68,3.83 -3.981,4.5 -15,3.36 -30.668,8.67 -47.027,16.01 -16.332,7.66 -32.66,15.82 -48.992,24.49 -19.328,10.36 -38.508,19.5 -57.5,27.5 -18.981,8.36 -37.149,13.36 -54.488,15 -1.012,0.36 -2.192,0.51 -3.512,0.51 -11.649,-0.35 -21.328,-5 -28.988,-13.98 -7.34,-10 -10,-20.67 -8.012,-32.03 3.672,-13.32 11.492,-23.17 23.519,-29.5 11.993,-6.32 25,-9.49 38.981,-9.49 2,0 4.34,0 7,0 -3.008,-8.32 -8.68,-15.15 -17,-20.51 -8.668,-5.31 -17.848,-8.16 -27.5,-8.47 -1.68,0 -3.32,0.15 -5,0.47 0,0 -0.149,0 -0.5,0 m 848.001,113.51 c -1.01,-0.35 -1.99,-0.51 -3,-0.51 -17.35,-1.64 -35.51,-6.64 -54.5,-15 -18.98,-8 -38.16,-17.14 -57.5,-27.5 -16.33,-8.67 -32.65,-16.64 -48.98,-23.98 -16.37,-7.66 -32.03,-13.16 -47.03,-16.52 -2.31,-0.67 -3.64,-2.15 -3.99,-4.5 0,-2.65 1.17,-4.33 3.52,-5 25.98,-8.67 50,-19.49 71.99,-32.5 14.65,-8 29.34,-15.15 43.99,-21.48 14.68,-6.33 30.35,-10.66 46.99,-13.01 5.35,-0.66 10.51,-1.01 15.51,-1.01 30.66,-0.32 49.33,13.51 56.01,41.52 0.31,1.64 -0.16,3.16 -1.52,4.49 -0.98,1.02 -2.15,1.49 -3.48,1.49 -0.35,0 -0.51,0 -0.51,0 -1.68,-0.32 -3.32,-0.47 -5,-0.47 -9.65,0.31 -18.83,3.16 -27.5,8.47 -8.67,5.36 -14.33,12.19 -16.99,20.51 2.34,0 4.65,0 6.99,0 13.99,0 27,3.17 38.99,9.49 12.03,6.33 19.84,16.18 23.51,29.5 2,11.36 -0.66,22.03 -8,32.03 -7.66,8.98 -17.5,13.63 -29.5,13.98 m -415,21.99 c -2.34,0 -3.98,-0.97 -5,-3 -8.67,-23.64 -21.83,-43.99 -39.49,-60.98 -17.34,-16.99 -38.01,-29.69 -61.99,-38.01 -2.35,-1.01 -3.52,-2.65 -3.52,-5 0.35,-2.65 1.68,-4.18 3.99,-4.49 23.36,-5.35 43.86,-14.69 61.52,-28.01 17.34,-13.32 30.66,-29.65 40,-48.98 0.98,-2.03 2.5,-3.01 4.49,-3.01 2,0 3.52,0.98 4.5,3.01 9.33,19.33 22.65,35.66 40,48.98 17.65,13.32 38.16,22.66 61.52,28.01 2.3,0.31 3.63,1.84 3.98,4.49 0,2.35 -1.17,3.99 -3.51,5 -23.99,8.32 -44.65,21.02 -61.99,38.01 -17.66,16.99 -30.98,37.34 -40,60.98 -0.67,2.03 -2.15,3 -4.5,3 M 755.898,1756.99 c -1.679,0 -3.007,-0.66 -4.019,-1.99 -1.649,-1.99 -1.649,-4.02 0,-6.02 24.68,-29.64 55.851,-44.49 93.512,-44.49 21.988,0.67 44.339,4.65 66.988,11.99 23.012,7.66 45.672,16.53 68.012,26.53 20.309,8.63 39.649,15.97 58.009,21.99 18.32,6.33 35.47,9.65 51.48,10 14.34,0 26.68,-3.36 37,-10 1.01,-0.66 1.99,-1.02 3,-1.02 1.33,0 2.5,0.51 3.52,1.53 1.64,2.3 1.83,4.49 0.47,6.48 -25.98,31.68 -57.66,47.35 -95,46.99 -21.33,-0.31 -42.819,-4.14 -64.491,-11.48 -22,-7.66 -43.68,-16.33 -65,-26.02 -20.32,-8.98 -40,-16.83 -58.988,-23.47 -19.02,-6.68 -36.993,-10.2 -54.02,-10.51 -14.34,0 -27.152,3.01 -38.48,8.98 -0.661,0.36 -1.332,0.51 -1.993,0.51 M 1239.88,1775 c 15.67,-0.35 32.85,-3.67 51.49,-10 18.36,-6.33 37.5,-13.67 57.5,-21.99 22.69,-10 45.35,-18.67 68.01,-26.02 23,-7.65 45.5,-11.83 67.5,-12.5 37.65,0 68.82,14.85 93.51,44.49 1.64,2 1.64,4.03 0,6.02 -1.01,1.33 -2.34,1.99 -4.02,1.99 -0.67,0 -1.49,-0.15 -2.5,-0.51 -10.98,-5.97 -23.64,-8.98 -37.97,-8.98 -17.03,0.31 -35,3.83 -54.02,10.51 -18.99,6.64 -38.68,14.49 -58.99,23.47 -21.68,9.69 -43.36,18.36 -65,26.02 -21.68,7.34 -43.16,11.17 -64.49,11.48 -37.7,0.36 -69.34,-15.31 -95,-46.99 -1.68,-1.99 -1.68,-4.18 0,-6.48 1.33,-1.02 2.65,-1.53 3.98,-1.53 1.02,0 2,0.36 3.01,1.02 10,6.64 22.34,10 36.99,10 m -541.482,45.51 c -1.679,-0.35 -3.007,-1.37 -4.019,-3.01 -13.68,-22.66 -34.649,-37.34 -63.008,-44.02 -28.32,-6.64 -59.492,-10.67 -93.48,-12 -29.02,-1.32 -56.68,-4.33 -83.012,-8.98 -26.328,-4.69 -48.32,-14.69 -66.008,-30 -17.973,-15.66 -28.48,-40 -31.492,-73.01 0.351,-2.65 1.68,-4.33 3.992,-5 0.66,0 1.008,0 1.008,0 2.351,0 3.992,1.02 5,3.01 8.012,20.31 23.832,33.32 47.5,38.98 23.992,5.36 52,8.52 83.992,9.5 29.02,0.66 57.688,3.36 86.008,8 28.32,5 53.172,15.67 74.5,32 21.32,16.36 36.012,42.34 44.019,78 0.661,3.01 -0.347,5 -3.007,6.02 -0.661,0 -1.332,0.16 -1.993,0.51 m 932.502,0 c -0.35,-0.35 -0.86,-0.51 -1.52,-0.51 -2.66,-1.33 -3.83,-3.36 -3.48,-6.02 8.32,-35.66 23.16,-61.64 44.49,-78 21.33,-16.33 46.17,-27 74.49,-32 28.32,-4.64 57,-7.34 86.02,-8 31.99,-0.98 60,-4.14 83.98,-9.5 23.67,-5.66 39.5,-18.67 47.5,-38.98 0.67,-1.99 2.15,-3.01 4.5,-3.01 0.35,0 0.66,0 1.01,0 2.66,0.67 3.99,2.35 3.99,5 -3.01,33.01 -13.33,57.35 -30.98,73.01 -17.7,15.31 -39.69,25.31 -66.02,30 -26.33,5 -53.98,8.01 -83,8.98 -34.34,1.33 -65.51,5.36 -93.48,12 -28.36,6.68 -49.34,21.36 -63.01,44.02 -1.01,1.64 -2.5,2.66 -4.49,3.01 m -1049.529,-200 c 6.68,0.31 13.359,0 20,-1.02 22.34,-3.67 39.84,-10 52.5,-18.98 13.008,-9.03 22.34,-18.01 28.008,-27.03 1.012,-1.64 2.5,-2.5 4.492,-2.5 0,0 0.188,0 0.508,0 1.992,0.66 3.351,1.83 4.019,3.51 7.973,25.67 22.5,46.84 43.481,63.52 21.012,16.33 46.672,26.83 76.992,31.48 2.34,0.35 3.668,1.84 4.02,4.49 0.308,2.35 -0.661,4.03 -3.012,5 -20,7.66 -37.149,19.03 -51.481,34.03 -14.339,15 -24.687,32.3 -31.019,51.99 -0.66,2.34 -2.149,3.48 -4.488,3.48 -0.352,0.35 -0.512,0.35 -0.512,0 -2.34,0 -3.828,-1.14 -4.488,-3.48 -10.352,-34.69 -29.493,-62.19 -57.5,-82.5 -27.661,-20.66 -60.161,-31.17 -97.5,-31.52 -3.672,0 -7.192,0 -10.512,0 -20.66,1.68 -39.488,3.36 -56.481,5 -20.668,2.34 -38.668,3.67 -54.019,4.02 -11.328,0.31 -22,-1.17 -32,-4.49 -10.348,-3.36 -18.16,-10.67 -23.508,-22.03 -4.652,-12 -3.832,-22.82 2.5,-32.5 8.359,-12 21.828,-18.17 40.508,-18.48 13,0.31 25.152,2.34 36.519,5.98 11.332,3.36 22.5,7.5 33.481,12.5 11.992,5 24.492,9.53 37.5,13.51 13,3.99 26.992,6.02 41.992,6.02 m 1023.009,147.97 c -2.35,0 -3.83,-1.14 -4.5,-3.48 -6.33,-19.69 -16.68,-36.99 -31.01,-51.99 -14.34,-15 -31.49,-26.37 -51.49,-34.03 -2.34,-0.97 -3.51,-2.65 -3.51,-5 0.66,-2.65 2.18,-4.14 4.53,-4.49 30.31,-4.65 55.98,-15.15 76.99,-31.48 20.98,-16.68 35.51,-37.85 43.48,-63.52 0.35,-1.68 1.68,-2.85 4.02,-3.51 0,0 0.16,0 0.51,0 1.64,0 3.16,0.86 4.49,2.5 5.66,9.02 15,18 28.01,27.03 12.65,8.98 30.15,15.31 52.5,18.98 6.64,0.67 13.32,1.02 20,1.02 15,0 28.98,-2.03 41.99,-6.02 13.01,-3.98 25.51,-8.51 37.5,-13.51 10.98,-5 22.15,-9.14 33.48,-12.5 11.01,-3.64 22.69,-5.67 35,-5.98 0.35,0 0.51,0 0.51,0 19.33,0.31 33.16,6.48 41.52,18.48 5.98,9.68 6.64,20.5 1.99,32.5 -5,11.36 -12.66,18.67 -23.01,22.03 -10.35,3.32 -21.01,4.8 -31.99,4.49 -15.35,-0.35 -33.36,-1.68 -54.02,-4.02 -16.99,-1.64 -35.82,-3.32 -56.49,-5 -3.67,0 -7.15,0 -10.5,0 -37.35,0.35 -70,10.86 -98.01,31.52 -27.66,20.31 -46.64,47.81 -56.99,82.5 -0.67,2.34 -2.35,3.48 -5,3.48 0,0.35 0,0.35 0,0 M 387.379,1575.98 c -1.328,0 -2.5,-0.47 -3.508,-1.49 -1.992,-2.34 -1.992,-4.65 0,-6.99 24.328,-27.34 55.508,-41.02 93.508,-41.02 15,0.36 29.851,2 44.5,5 14.68,3.01 29.172,6.53 43.512,10.51 25,7.35 47.5,11.49 67.5,12.5 15,0 26.988,-3.83 35.98,-11.48 1.008,-0.67 2.027,-1.02 3.008,-1.02 1.32,0 2.5,0.51 3.512,1.49 1.988,2.03 2.148,4.18 0.507,6.52 -19.019,24.34 -46.519,36.48 -82.5,36.48 -28.668,-1.32 -57.5,-5.82 -86.519,-13.47 -27,-6.68 -51.488,-10.51 -73.481,-11.53 -18.359,0 -32.5,4.34 -42.5,13.01 -1.019,1.02 -2.187,1.49 -3.519,1.49 m 1309.501,-21.49 c 20,-1.01 42.34,-5.15 66.99,-12.5 14.68,-3.98 29.33,-7.5 44.02,-10.51 14.65,-3 29.49,-4.64 44.49,-5 38.01,0 69.18,13.68 93.52,41.02 1.64,2.34 1.64,4.65 0,6.99 -1.02,1.02 -2.19,1.49 -3.52,1.49 -1.33,0 -2.5,-0.47 -3.51,-1.49 -10,-8.67 -24.14,-13.01 -42.5,-13.01 -21.99,1.02 -46.49,4.85 -73.48,11.53 -29.34,7.65 -58.16,12.15 -86.52,13.47 -35.98,0 -63.48,-12.14 -82.5,-36.48 -1.64,-2.34 -1.49,-4.49 0.51,-6.52 1.01,-0.98 2.18,-1.49 3.51,-1.49 0.98,0 1.99,0.35 3.01,1.02 8.98,7.65 20.98,11.48 35.98,11.48 m -930.509,33.52 c 15.66,-0.35 32.688,-3.87 51.008,-10.51 18.012,-6.33 37,-13.83 57,-22.5 21.992,-10 44.172,-18.83 66.519,-26.52 22.653,-7.97 44.801,-12.15 66.482,-12.5 36.68,0 67.15,14.53 91.49,43.51 1.68,2.35 1.68,4.49 0,6.49 -0.98,1.36 -2.31,2.03 -3.99,2.03 -0.66,0 -1.33,-0.2 -1.99,-0.51 -11.33,-6.02 -23.83,-9.02 -37.5,-9.02 -16.99,0.35 -34.84,3.86 -53.51,10.5 -18.681,6.68 -38.009,14.69 -58.009,24.03 -21.332,10 -42.66,18.83 -63.992,26.48 -21.328,7.66 -42.5,11.68 -63.508,11.99 -36.641,0 -67.66,-15.5 -92.973,-46.48 -1.679,-2.34 -1.679,-4.49 0,-6.52 1.332,-0.98 2.653,-1.49 3.981,-1.49 1.019,-0.35 1.84,-0.15 2.5,0.51 10.351,6.99 22.5,10.51 36.492,10.51 m 468.009,-20 c -1.33,0 -2.5,-0.67 -3.48,-2.03 -1.68,-2 -1.68,-4.14 0,-6.49 24.33,-28.98 54.8,-43.51 91.48,-43.51 21.68,0.35 43.67,4.53 66.02,12.5 22.65,7.69 45,16.52 66.99,26.52 19.65,8.67 38.67,16.17 56.99,22.5 18.32,6.64 35.35,10.16 51.02,10.51 13.98,0 25.98,-3.52 35.98,-10.51 1.01,-0.35 1.99,-0.51 3,-0.51 1.33,-0.35 2.5,0.16 3.52,1.49 1.99,2.03 2.15,4.18 0.47,6.52 -25.67,30.98 -56.64,46.48 -92.97,46.48 -21.02,-0.31 -42.19,-4.33 -63.52,-11.99 -21.68,-7.65 -43,-16.48 -63.98,-26.48 -20,-9.34 -39.34,-17.35 -58.01,-24.03 -18.67,-6.64 -36.52,-10.15 -53.51,-10.5 -13.99,0 -26.49,3 -37.5,9.02 -0.67,0.31 -1.49,0.51 -2.5,0.51 m -813.989,-52.03 c -0.661,0 -1.332,-0.16 -1.993,-0.47 -2.027,-1.02 -3.007,-2.5 -3.007,-4.53 -0.352,-20.67 -16.52,-41.33 -48.512,-62 -2,-1.32 -2.66,-3.16 -2,-5.5 0.672,-2.31 2.351,-3.48 5,-3.48 H 1959.88 c 2.66,0 4.34,1.17 5,3.48 0.67,2.34 0,4.18 -1.99,5.5 -32.34,20.67 -48.51,41.33 -48.51,62 -0.32,2.03 -1.33,3.51 -3.01,4.53 -0.67,0.31 -1.33,0.47 -1.99,0.47 -1.33,0 -2.35,-0.32 -3.01,-0.98 -18.64,-13.01 -40.82,-19.49 -66.49,-19.49 -2.65,0 -5.35,0.15 -8,0.47 -18.33,1.01 -34.65,3.86 -48.99,8.51 -14.34,4.65 -27.5,9.65 -39.49,15 -19.34,9.65 -37.7,15 -55,16.02 -3.67,0 -7.19,-0.35 -10.51,-1.02 -10.35,-1.68 -17.85,-6.48 -22.5,-14.49 -4.02,-6.99 -4.84,-14.18 -2.5,-21.52 5.98,-15.98 18.32,-24.34 36.99,-25 3.32,0 6.49,0.35 9.5,1.01 -5.98,-5 -13.99,-7.65 -23.99,-8.01 -5.66,-0.31 -12.19,1.53 -19.49,5.51 -7.35,5.35 -13.17,12.35 -17.5,21.02 -1.02,1.64 -2.5,2.65 -4.53,2.97 -1.99,0 -3.48,-0.82 -4.49,-2.5 -3.68,-5.32 -7.82,-10.16 -12.5,-14.5 -8.99,-7.34 -20.16,-10.97 -33.48,-10.97 -15,0.31 -25.67,4.14 -32.03,11.48 3.67,-0.35 7.18,-0.51 10.51,-0.51 13.35,0 24.68,3.52 34.02,10.51 9.65,6.68 15.82,15.82 18.48,27.5 1.99,10 -0.16,19.18 -6.49,27.5 -7.34,9.65 -17.66,14.85 -31.01,15.51 -1.65,0.31 -3.17,0.51 -4.5,0.51 -13.98,-0.35 -27.5,-3.36 -40.5,-9.03 -13.33,-5.66 -27,-12.65 -40.98,-20.97 -15.67,-9.03 -32.85,-17.85 -51.52,-26.53 -18.99,-8.32 -40.83,-14.64 -65.51,-18.98 -11.64,-1.68 -22.82,-2.5 -33.48,-2.5 -46.33,0.31 -84.49,16.33 -114.49,48.01 -15,16.33 -26.37,33.98 -34.02,52.97 -7.66,18.67 -12,36.36 -13.01,53 16.01,-18.67 39.18,-28.16 69.53,-28.47 23.98,0.66 48.48,5.15 73.48,13.47 25.35,8.36 48.51,17 69.49,26.02 15,6.33 27.69,11.17 38.01,14.49 2.65,1.02 3.82,2.85 3.51,5.51 -0.35,2.34 -1.68,3.83 -4.02,4.49 -24.65,4.34 -46.49,10.67 -65.47,18.99 -18.67,8.36 -35.86,17.18 -51.52,26.52 -14.34,8.32 -28.01,15.31 -40.98,20.98 -13.36,5.66 -26.84,8.67 -40.51,9.02 -1.68,-0.35 -3.36,-0.51 -5,-0.51 -13.36,-0.66 -23.67,-5.82 -31.01,-15.51 -6.33,-8.32 -8.48,-17.5 -6.49,-27.5 2.66,-11.64 8.83,-20.97 18.48,-28 9.33,-7 20.66,-10.47 34.02,-10.47 3.67,0 7.15,0.15 10.51,0.47 -6.02,-7.31 -16.68,-11.14 -32.03,-11.49 -13.32,0 -24.49,3.67 -33.48,11.02 -6.33,5.66 -11.68,12.3 -16.01,20 -0.98,1.64 -2.5,2.5 -4.5,2.5 -1.99,0 -3.51,-0.86 -4.49,-2.5 -4.34,-7.7 -9.69,-14.34 -16.01,-20 -8.99,-7.35 -20.16,-11.02 -33.48,-11.02 -15.35,0.35 -26.17,4.18 -32.5,11.49 3.63,-0.32 7.15,-0.47 10.47,-0.47 13.67,0 25.19,3.47 34.53,10.47 9.65,7.03 15.82,16.36 18.48,28 1.99,10 -0.16,19.18 -6.49,27.5 -7.34,9.69 -17.66,14.85 -31.01,15.51 -1.65,0.35 -3.33,0.51 -5,0.51 -13.99,-0.35 -27.5,-3.36 -40.51,-9.02 -13.32,-5.98 -27.15,-12.97 -41.49,-20.98 -15.35,-9.02 -32.501,-17.85 -51.482,-26.52 -18.668,-8.32 -40.347,-14.65 -65,-18.99 -2.699,-0.66 -4.179,-2.15 -4.527,-4.49 0,-2.66 1.168,-4.49 3.508,-5.51 10.672,-3.32 23.519,-8.16 38.519,-14.49 20.661,-9.02 43.633,-17.66 68.982,-26.02 25.35,-8.32 50,-12.81 73.99,-13.47 30,0.31 53.16,9.8 69.53,28.47 -1.02,-16.64 -5.35,-34.33 -13.01,-53 -7.66,-18.99 -19.02,-36.64 -34.02,-52.97 -30.32,-31.68 -68.48,-47.7 -114.491,-48.01 -10.981,0 -22.149,0.82 -33.481,2.5 -24.687,4.34 -46.519,10.66 -65.507,18.98 -18.672,8.68 -35.86,17.5 -51.52,26.53 -13.992,8.32 -27.66,15.31 -40.98,20.97 -13.012,5.67 -26.52,8.68 -40.512,9.03 -1.328,-0.35 -2.848,-0.51 -4.488,-0.51 -13.36,-0.66 -23.672,-5.86 -31.012,-15.51 -6.328,-8.32 -8.481,-17.5 -6.488,-27.5 2.66,-11.68 8.668,-20.82 18.007,-27.5 9.653,-6.99 21.133,-10.51 34.493,-10.51 3.32,-0.31 6.839,-0.15 10.507,0.51 -6.367,-7.34 -17.027,-11.17 -32.027,-11.48 -13.32,0 -24.492,3.63 -33.48,10.97 -4.692,4.34 -9.02,9.18 -13.012,14.5 -1.008,1.68 -2.34,2.5 -3.981,2.5 0,0 -0.199,0 -0.507,0 -1.68,-0.32 -3.012,-1.33 -4.02,-2.97 -4.34,-8.67 -10.32,-15.67 -17.973,-21.02 -7.027,-3.98 -13.519,-5.82 -19.527,-5.51 -9.652,0.36 -17.5,3.01 -23.48,8.01 3.007,-0.66 5.98,-1.01 8.988,-1.01 19.019,0.66 31.519,9.02 37.5,25 2.34,7.34 1.519,14.53 -2.5,21.52 -5,8.01 -12.5,12.81 -22.5,14.49 -3.328,0.67 -6.84,1.02 -10.508,1.02 -17.66,-1.02 -36.141,-6.37 -55.473,-16.02 -12.027,-5.35 -25,-10.35 -39.019,-15 -14.34,-4.65 -30.668,-7.5 -48.988,-8.51 -2.661,-0.32 -5.352,-0.47 -8.012,-0.47 -25.66,0 -47.848,6.48 -66.481,19.49 -1.019,0.66 -2.027,0.98 -3.007,0.98 m -377.5004,-105 c -25,0.35 -39.17966,10.5 -42.499975,30.5 -1.332031,10 0.660155,19.85 5.980465,29.5 5.00001,10 12.84771,16.83 23.50781,20.5 5.3516,1.33 10.3516,2 15,2 13.6719,-0.67 29.3399,-5.98 47,-15.98 14.6801,-8.36 33.8201,-16.68 57.5001,-25 23.672,-8.36 55.152,-14.34 94.492,-18.01 5.66,-0.66 11.008,-1.01 16.008,-1.01 25.672,0.35 47.66,4.53 66.019,12.5 17.973,8 32.153,17.34 42.5,28 10.313,10.67 16.133,20.36 17.5,29.03 1.993,12.3 -0.347,22.5 -7.027,30.47 -6.992,8 -16.84,12.03 -29.492,12.03 -7.348,0 -14.848,-1.53 -22.5,-4.53 l -26.488,-10.47 c -9.692,-3.67 -18.012,-6.68 -25,-9.03 -3.672,-1.32 -7.192,-1.99 -10.512,-1.99 -2.649,0 -5.149,0.35 -7.5,1.02 -5,1.33 -8.828,5.82 -11.481,13.47 -2.699,7 -3.359,13.17 -2.027,18.52 1.359,5 4.68,9.34 10,13.01 12.34,8.32 26.828,12.5 43.508,12.5 10.351,0 21.68,-1.68 33.992,-5 2.34,-0.35 4.527,-1.02 6.52,-2.03 l 3.007,-0.98 c 0.661,0 1.133,0 1.481,0 1.68,0 3.012,0.51 3.992,1.48 1.359,1.68 1.68,3.52 1.008,5.51 -11.988,27.35 -17.149,54.85 -15.5,82.5 1.672,27.35 10,52.66 25,76.02 16.992,25.66 39.84,45.31 68.512,58.98 28.988,13.99 62.148,21.02 99.488,21.02 6.019,0 12,-0.2 18.012,-0.51 l 5.507,-0.51 c 18.633,-1.33 38.161,-1.99 58.481,-1.99 48.351,-0.35 77.652,8.16 88,25.51 7.66,11.99 9.34,23.83 5,35.47 -5,12.34 -17.149,21.01 -36.481,26.01 -12.027,2.66 -23.007,3.99 -33.007,3.99 -8.36,0.35 -15.86,1.17 -22.5,2.5 -6.332,1.36 -11.332,4.68 -15,10 -3.36,5 -4.84,9.84 -4.493,14.53 0.313,4.33 1.332,7.65 2.973,10 4.68,9.65 11.68,15.31 21.008,16.99 2.351,0.31 4.851,0.51 7.5,0.51 15.672,-0.67 29.34,-5 41.019,-13.01 11.641,-8.36 21.133,-17.19 28.481,-26.52 1.012,-1.33 2.34,-2 4.019,-2 0.313,0 0.661,0 0.981,0 2.34,1.02 3.672,2.5 4.019,4.5 4.332,34.02 20.313,65.66 47.973,95 20,20.66 45,35.19 75,43.51 9.68,2.35 18.16,4.18 25.508,5.51 6.992,0.98 14.172,1.48 21.519,1.48 36.332,0 75.821,-12.5 118.481,-37.5 26.011,-15 48.821,-27.5 68.511,-37.5 l 5,-2.5 c 18.67,-10 36.17,-15 52.5,-15 18.67,0.36 30.82,6.53 36.49,18.52 4.02,10 4.17,18.98 0.5,26.99 -3.98,8.01 -9.49,15.51 -16.48,22.5 -5.67,5.35 -12.5,10.67 -20.51,16.02 -7.66,5 -14.69,10.31 -21.01,15.97 -5.98,5.36 -9.85,11.33 -11.49,18.01 -0.66,8.67 0.66,14.65 3.99,18.01 4.68,5.66 10.15,8.98 16.52,10 0.66,0 1.48,0 2.5,0 8.32,0 17.65,-4.34 27.97,-13.01 10.66,-8.67 20,-22.15 28.01,-40.51 l 1.01,-1.99 c 0.66,-2.34 2.15,-3.51 4.49,-3.51 2,0.35 3.52,1.52 4.5,3.51 l 0.5,1.02 c 8.32,18.63 17.66,32.5 28.01,41.48 10.66,8.67 20.16,13.01 28.48,13.01 1.01,0 1.83,0 2.5,0 6.36,-1.02 11.68,-4.34 16.01,-10 3.67,-3.36 5.16,-9.34 4.5,-18.01 -1.65,-6.68 -5.51,-12.65 -11.49,-18.01 -6.33,-5.66 -13.36,-10.97 -21.01,-15.97 -8.33,-5 -15.32,-10.35 -20.98,-16.02 -7.03,-6.99 -12.35,-14.49 -16.02,-22.5 -3.67,-8.32 -3.51,-17.34 0.51,-26.99 5.31,-11.99 17.5,-18.16 36.49,-18.52 16.01,0.36 33.51,5.36 52.5,15 l 5,2.5 c 19.68,10 42.5,22.5 68.51,37.5 42.66,25 81.99,37.5 118.01,37.5 7.65,0 15,-0.5 21.99,-1.48 7.34,-1.02 15.82,-2.85 25.51,-5.51 30,-8.32 54.8,-22.85 74.49,-43.51 28.01,-29.34 44.14,-60.98 48.48,-95 0.35,-2.31 1.52,-3.83 3.51,-4.5 0.67,0 1.17,0 1.49,0 1.68,0 3.01,0.67 4.02,2 7.34,9.68 16.84,18.51 28.48,26.52 11.36,8.01 24.84,12.34 40.51,13.01 2.65,0 5.35,-0.2 8,-0.51 8.99,-1.68 16.02,-7.34 21.02,-16.99 1.33,-2.35 2.15,-5.67 2.5,-10 0.31,-4.69 -1.02,-9.53 -4.02,-14.53 -3.68,-5.32 -8.83,-8.64 -15.51,-10 -6.33,-1.33 -13.64,-2.15 -21.99,-2.5 -10.32,0 -21.33,-1.33 -33.01,-3.99 -19.65,-4.65 -31.99,-13.32 -36.99,-26.01 -3.99,-11.64 -2.35,-23.48 5,-35.47 10.66,-17.35 40.15,-25.86 88.51,-25.51 20,0 39.49,0.66 58.48,1.99 l 5.51,0.51 c 6.01,0.31 11.99,0.51 18,0.51 37,0 70,-7.03 98.99,-21.02 29.02,-13.67 52.03,-33.32 69.02,-58.98 15,-23.36 23.32,-48.67 25,-76.02 1.64,-27.65 -3.51,-55.15 -15.51,-82.5 -0.66,-1.99 -0.35,-3.83 1.02,-5.51 0.98,-0.97 2.15,-1.48 3.48,-1.48 0.66,0 1.32,0 1.99,0 l 3.01,0.98 c 1.99,1.01 4.17,1.68 6.52,2.03 11.99,3.32 23.32,5 33.98,5 16.68,0 31.02,-4.18 43.01,-12.5 5.66,-3.36 9.14,-7.7 10.51,-13.01 1.33,-5.35 0.66,-11.52 -2.03,-18.52 -2.66,-7.65 -6.49,-12.14 -11.49,-13.47 -2.34,-0.67 -4.84,-1.02 -7.5,-1.02 -3.32,0 -6.83,0.67 -10.5,1.99 -7.35,2.35 -15.67,5.36 -25,9.03 l -27,10.47 c -7.34,3 -14.65,4.53 -21.99,4.53 -12.66,0 -22.5,-4.03 -29.49,-12.03 -6.68,-7.97 -9.02,-18.17 -7.03,-30.47 1.36,-8.67 7.18,-18.36 17.5,-29.03 10,-10.66 24.18,-20 42.5,-28 18.36,-7.66 40.19,-11.84 65.51,-12.5 5.35,0 10.85,0.35 16.52,1.01 39.33,3.67 70.82,9.65 94.49,18.01 23.67,8.32 42.81,16.64 57.5,25 17.34,10 33.01,15.31 46.99,15.98 4.65,0 9.65,-0.67 15,-2 10.67,-3.67 18.52,-10.5 23.52,-20.5 5.31,-9.65 7.3,-19.5 5.98,-29.5 -3.33,-20 -17.66,-30.15 -43.01,-30.5 H 42.8906" /><path
         id="path16"
         style="fill:#35ba9c;fill-opacity:1;fill-rule:evenodd;stroke:none"
         d="m 433.398,568.012 c 21.993,-1.024 46.481,-5 73.481,-12.032 29.019,-7.308 57.851,-11.64 86.519,-12.968 35.981,0 63.481,12.148 82.5,36.476 1.641,2.352 1.481,4.492 -0.507,6.492 -1.012,1.008 -2.192,1.52 -3.512,1.52 -0.981,0 -2,-0.352 -3.008,-1.02 -8.992,-7.652 -20.98,-11.48 -35.98,-11.48 -20,0.98 -42.5,5.16 -67.5,12.5 -14.34,3.98 -28.832,7.5 -43.512,10.512 -15,2.968 -29.848,4.488 -44.5,4.488 -38,0.309 -69.18,-13.16 -93.508,-40.512 -1.992,-2.34 -1.992,-4.648 0,-6.988 1.008,-1.02 2.18,-1.52 3.508,-1.52 1.332,0 2.5,0.5 3.519,1.52 10,8.672 24.141,13.012 42.5,13.012 M 1657.89,587.5 c -1.33,0 -2.5,-0.512 -3.51,-1.52 -2,-2 -2.15,-4.14 -0.51,-6.492 18.67,-24.328 46.17,-36.476 82.5,-36.476 28.36,1.328 57.18,5.66 86.52,12.968 26.99,7.032 51.49,11.008 73.48,12.032 18.36,0 32.5,-4.34 42.5,-13.012 1.01,-1.02 2.18,-1.52 3.51,-1.52 1.33,0 2.5,0.5 3.52,1.52 1.64,2.34 1.64,4.648 0,6.988 -24.34,27.352 -55.51,40.821 -93.52,40.512 -15,0 -29.84,-1.52 -44.49,-4.488 -14.69,-3.012 -29.34,-6.532 -44.02,-10.512 -24.65,-7.34 -46.99,-11.52 -66.99,-12.5 -15,0 -27,3.828 -35.98,11.48 -1.02,0.668 -2.03,1.02 -3.01,1.02 m -930.511,-35 c -1.328,0 -2.649,-0.512 -3.981,-1.52 -1.679,-2 -1.679,-4.14 0,-6.492 25.313,-31.328 56.332,-46.828 92.973,-46.476 21.008,0.308 42.18,4.328 63.508,11.988 21.332,7.66 42.66,16.48 63.992,26.48 20,9.032 39.328,17 58.009,24.032 18.67,6.636 36.52,10.148 53.51,10.468 13.67,0 26.17,-2.968 37.5,-8.992 0.66,-0.347 1.33,-0.508 1.99,-0.508 1.68,0 3.01,0.668 3.99,2 1.68,2.032 1.68,4.18 0,6.52 -24.34,28.98 -54.81,43.48 -91.49,43.48 -21.681,-0.32 -43.829,-4.5 -66.482,-12.5 -22.347,-7.66 -44.527,-16.492 -66.519,-26.492 -20,-8.668 -38.988,-16.328 -57,-23.008 -18.32,-6.32 -35.348,-9.64 -51.008,-10 -13.992,0 -26.141,3.52 -36.492,10.508 -0.66,0.352 -1.481,0.512 -2.5,0.512 m 547.001,18.48 c 16.99,-0.32 34.84,-3.832 53.51,-10.468 18.67,-7.032 38.01,-15 58.01,-24.032 20.98,-10 42.3,-18.82 63.98,-26.48 21.33,-7.66 42.5,-11.68 63.52,-11.988 36.33,-0.352 67.3,15.148 92.97,46.476 1.36,1.992 1.17,4.184 -0.47,6.492 -1.02,1.008 -2.19,1.52 -3.52,1.52 -1.01,0 -1.99,-0.16 -3,-0.512 -10,-6.988 -22,-10.508 -35.98,-10.508 -15.67,0.36 -32.7,3.68 -51.02,10 -18,6.68 -36.99,14.34 -56.99,23.008 -21.99,10 -44.34,18.832 -66.99,26.492 -22.35,7.692 -44.34,11.829 -66.02,12.5 -36.68,0 -67.15,-14.5 -91.48,-43.48 -1.68,-2.34 -1.68,-4.488 0,-6.52 0.98,-1.332 2.15,-2 3.48,-2 1.01,0 1.83,0.161 2.5,0.508 11.01,6.024 23.51,8.992 37.5,8.992 m -33.99,-107 c -13.36,0 -24.84,-3.468 -34.49,-10.5 -9.34,-7 -15.35,-16.332 -18.01,-27.968 -1.99,-10 0.16,-19.184 6.49,-27.5 7.34,-9.692 17.65,-15 31.01,-16.024 1.64,0 3.32,0 5,0 -0.35,0 -0.35,0 0,0 13.99,0.352 27.5,3.321 40.51,8.992 13.32,5.661 26.99,12.692 40.98,21.008 15.66,8.992 32.85,17.852 51.52,26.492 18.98,8.36 40.82,14.68 65.47,19.02 2.34,0.66 3.67,2.148 4.02,4.488 0.31,2.66 -0.86,4.492 -3.51,5.512 -10.32,3.32 -23.01,8.16 -38.01,14.488 -20.98,8.992 -43.99,17.66 -68.99,26.024 -25.35,8.316 -50,12.648 -73.98,12.968 -30.35,0 -53.52,-9.339 -69.53,-27.968 1.01,16.636 5.35,34.328 13.01,52.968 7.65,19.02 19.02,36.68 34.02,53 30,31.68 68.16,47.661 114.49,48.008 10.66,0 21.84,-1.008 33.48,-3.008 24.68,-3.98 46.52,-10.308 65.51,-18.98 18.67,-8.359 35.85,-16.988 51.52,-26.02 13.98,-8.32 27.65,-15.308 40.98,-20.968 13,-5.672 26.52,-8.672 40.5,-9.032 1.33,0 2.85,0.161 4.5,0.508 13.35,0.672 23.67,5.821 31.01,15.512 6.33,8.32 8.48,17.5 6.49,27.5 -2.66,11.641 -8.83,20.82 -18.48,27.5 -9.34,6.988 -20.67,10.512 -34.02,10.512 -3.33,0 -6.84,-0.203 -10.51,-0.512 6.36,7.34 17.03,11.172 32.03,11.48 13.32,0 24.49,-3.671 33.48,-10.968 4.68,-4.34 8.82,-9.34 12.5,-15 1.32,-1.371 2.85,-2.032 4.49,-2.032 2.03,0.348 3.51,1.36 4.53,3 4.33,8.68 10.15,15.668 17.5,21.02 7.3,3.98 13.83,5.82 19.49,5.512 10,-0.352 18.01,-3.012 23.99,-8.012 -3.33,0.66 -6.49,0.98 -9.5,0.98 -18.67,-0.671 -31.01,-8.992 -36.99,-25 -2.34,-7.308 -1.52,-14.5 2.5,-21.492 5,-8.008 12.5,-12.847 22.5,-14.488 3.32,-0.66 6.84,-1.02 10.51,-1.02 17.3,1.02 35.66,6.329 55,16.02 11.99,5.309 25.15,10.309 39.49,15 14.34,4.648 30.66,7.5 48.99,8.48 2.65,0.348 5.35,0.5 8,0.5 25.67,-0.308 47.85,-6.832 66.49,-19.492 1.01,-0.66 2.03,-1.008 3.01,-1.008 0.66,0 1.32,0.192 1.99,0.5 1.68,1.02 2.69,2.5 3.01,4.5 0,20.348 16.17,41.008 48.51,62.032 1.64,1.328 2.34,3.16 1.99,5.468 -1.01,2.34 -2.65,3.508 -5,3.508 H 369.879 c -2.649,0 -4.328,-1.168 -5,-3.508 -0.66,-2.308 0,-4.14 2,-5.468 31.992,-21.024 48.16,-41.684 48.512,-62.032 0,-2 0.98,-3.48 3.007,-4.5 0.661,-0.308 1.332,-0.5 1.993,-0.5 0.98,0 1.988,0.348 3.007,1.008 18.633,12.66 40.821,19.184 66.481,19.492 2.66,0 5.351,-0.152 8.012,-0.5 18.32,-0.98 34.648,-3.832 48.988,-8.48 14.332,-4.691 27.34,-9.691 39.019,-15 19.653,-9.691 38.161,-15 55.473,-16.02 3.668,0 7.18,0.36 10.508,1.02 10,1.641 17.5,6.48 22.5,14.488 4.019,6.992 4.84,14.184 2.5,21.492 -6.328,16.008 -18.828,24.329 -37.5,25 -3.008,0 -5.981,-0.32 -8.988,-0.98 5.98,5 13.828,7.66 23.48,8.012 6.008,0.308 12.5,-1.532 19.527,-5.512 7.653,-5.352 13.633,-12.34 17.973,-21.02 1.008,-1.64 2.34,-2.652 4.02,-3 0.308,0 0.507,0 0.507,0 1.641,0 2.973,0.661 3.981,2.032 3.992,5.66 8.32,10.66 13.012,15 8.988,7.297 20.16,10.968 33.48,10.968 15,-0.308 25.66,-4.14 32.027,-11.48 -3.668,0.309 -7.187,0.512 -10.507,0.512 -13.36,0 -24.84,-3.524 -34.493,-10.512 -9.339,-6.988 -15.347,-16.172 -18.007,-27.5 -1.993,-10 0.16,-19.18 6.488,-27.5 7.34,-9.691 17.652,-14.84 31.012,-15.512 1.328,-0.347 2.808,-0.508 4.488,-0.508 13.992,0.36 27.5,3.36 40.512,9.032 13.32,5.66 26.988,12.648 40.98,20.968 15.66,9.032 32.848,17.661 51.52,26.02 18.668,8.672 40.507,15 65.507,18.98 11.332,2 22.5,3.008 33.481,3.008 46.011,-0.347 84.171,-16.328 114.491,-48.008 15,-16.32 26.36,-33.98 34.02,-53 7.66,-18.992 11.99,-36.64 13.01,-52.968 -16.37,18.629 -39.69,27.968 -70,27.968 -23.67,-0.671 -48.17,-5 -73.52,-12.968 -25.001,-8.364 -48.001,-17.032 -68.982,-26.024 -15,-6.328 -27.847,-11.168 -38.519,-14.488 -2.34,-1.02 -3.508,-2.852 -3.508,-5.512 0.66,-2.34 2.18,-3.828 4.527,-4.488 24.653,-4.34 46.332,-10.66 65,-19.02 18.981,-8.64 36.132,-17.5 51.482,-26.492 14.34,-8.316 28.17,-15.347 41.49,-21.008 13.01,-5.671 26.52,-8.64 40.51,-8.992 1.67,0 3.35,0 5,0 13.35,1.024 23.67,6.332 31.01,16.024 6.33,8.316 8.48,17.5 6.49,27.5 -2.66,11.636 -8.83,20.968 -18.48,27.968 -9.34,7.032 -20.86,10.5 -34.53,10.5 -3.32,0 -6.84,-0.308 -10.47,-0.968 6.33,7.648 17.15,11.636 32.5,11.988 13.32,0 24.49,-3.672 33.48,-11.02 6.32,-5.66 11.67,-12.339 16.01,-20 0.98,-1.64 2.5,-2.5 4.49,-2.5 2,0 3.52,0.86 4.5,2.5 4.33,7.661 9.68,14.34 16.01,20 8.99,7.348 20.16,11.02 33.48,11.02 15.35,-0.352 26.01,-4.34 32.03,-11.988 -3.36,0.66 -6.84,0.968 -10.51,0.968 m 402.5,94.032 c -2.34,-0.352 -3.67,-1.532 -4.02,-3.524 -7.97,-25.66 -22.5,-46.679 -43.48,-63.008 -21.01,-16.32 -46.68,-26.832 -76.99,-31.48 -2.35,-0.66 -3.87,-2.191 -4.53,-4.488 0,-2.352 1.17,-4.032 3.51,-5 20,-7.703 37.15,-19.184 51.49,-34.532 14.33,-15 24.68,-32.152 31.01,-51.492 0.67,-2.34 2.15,-3.668 4.5,-3.976 0,0.308 0,0.308 0,0 2.65,0.308 4.33,1.636 5,3.976 10.35,34.653 29.33,62.153 56.99,82.5 28.01,20.352 60.66,30.821 98.01,31.492 3.35,0 6.83,-0.16 10.5,-0.468 20.67,-1.371 39.5,-2.852 56.49,-4.532 20.66,-2.308 38.67,-3.64 54.02,-3.992 11.33,-0.347 21.99,1.172 31.99,4.492 10.35,3.36 18.01,10.668 23.01,22 5,11.68 4.34,22.5 -1.99,32.5 -8.67,12.032 -22.35,18.161 -41.02,18.508 -12.65,-0.347 -24.65,-2.34 -36.01,-6.008 -11.33,-3.64 -22.5,-7.82 -33.48,-12.5 -11.99,-5 -24.49,-9.5 -37.5,-13.48 -13.01,-4.02 -26.99,-6.172 -41.99,-6.52 -6.68,0 -13.36,0.5 -20,1.52 -22.35,3.672 -39.85,10 -52.5,18.98 -13.01,9.032 -22.35,18.008 -28.01,27 -1.33,1.68 -2.85,2.5 -4.49,2.5 -0.35,0 -0.51,-0.16 -0.51,-0.468 M 565.391,478.48 c 37.339,-0.671 69.839,-11.14 97.5,-31.492 28.007,-20.347 47.148,-47.847 57.5,-82.5 0.66,-2.34 2.148,-3.668 4.488,-3.976 0.351,0.308 0.512,0.308 0.512,0 2.339,0.308 3.828,1.636 4.488,3.976 6.332,19.653 16.68,36.84 31.019,51.492 14.332,15 31.481,26.52 51.481,34.532 2.351,0.968 3.32,2.648 3.012,5 -0.352,2.648 -1.68,4.136 -4.02,4.488 -30.32,4.648 -55.98,15.16 -76.992,31.48 -20.981,16.68 -35.508,37.661 -43.481,63.008 -0.668,1.992 -2.027,3.172 -4.019,3.524 -0.32,0.308 -0.508,0.468 -0.508,0.468 -1.992,-0.32 -3.48,-1.14 -4.492,-2.5 -5.668,-8.992 -15,-17.968 -28.008,-27 -12.66,-8.98 -30.16,-15.308 -52.5,-18.98 -6.992,-1.02 -13.641,-1.52 -20,-1.52 -15,0.348 -28.992,2.5 -41.992,6.52 -13.008,3.98 -25.508,8.48 -37.5,13.48 -11.328,4.68 -22.5,8.86 -33.481,12.5 -11.367,3.668 -23.168,5.661 -35.507,6.008 0,-0.347 0,-0.347 0,0 -19.34,-0.347 -33.161,-6.476 -41.52,-18.508 -6.332,-10 -7.152,-20.82 -2.5,-32.5 5.348,-11.332 13.16,-18.64 23.508,-22 10,-3.32 20.672,-4.839 32,-4.492 15.351,0.352 33.351,1.684 54.019,3.992 16.993,1.68 35.821,3.161 56.481,4.532 3.672,0.308 7.152,0.468 10.512,0.468 m 230.98,-96.492 c 17.027,-0.347 35,-3.828 54.02,-10.508 18.988,-6.64 38.668,-14.492 58.988,-23.468 21.32,-9.692 43,-18.364 65,-26.024 21.672,-7.34 43.161,-11.328 64.491,-11.988 37.34,0 69.02,15.66 95,46.988 1.36,2.352 1.17,4.653 -0.47,6.992 -1.02,1.02 -2.19,1.532 -3.52,1.532 -1.01,0 -1.99,-0.352 -3,-1.024 -10.32,-6.679 -22.66,-10 -37,-10 -16.01,0.352 -33.16,3.672 -51.48,10 -18.36,6.024 -37.7,13.321 -58.009,21.992 -22.34,10 -45,18.68 -68.012,26.02 -22.649,7.66 -45,11.641 -66.988,11.988 -37.661,0.352 -68.832,-14.328 -93.512,-43.976 -1.649,-2.032 -1.649,-4.184 0,-6.532 1.012,-0.968 2.34,-1.48 4.019,-1.48 0.661,0 1.332,0.16 1.993,0.512 11.328,5.968 24.14,8.976 38.48,8.976 m 403.509,-16.476 c -1.33,0 -2.65,-0.512 -3.98,-1.532 -1.37,-2.339 -1.37,-4.64 0,-6.992 25.66,-31.328 57.3,-46.988 95,-46.988 21.33,0.309 42.81,4.34 64.49,11.988 21.99,7.66 43.67,16.332 65,26.024 20.31,8.976 40,16.828 58.99,23.468 19.02,6.68 36.99,10.161 54.02,10.508 14.33,0 26.99,-3.008 37.97,-8.976 1.01,-0.352 1.83,-0.512 2.5,-0.512 1.68,0 3.01,0.512 4.02,1.48 1.64,2.348 1.64,4.5 0,6.532 -24.69,29.648 -55.86,44.328 -93.51,43.976 -22,-0.347 -44.5,-4.328 -67.5,-11.988 -22.66,-7.34 -45.32,-16.02 -68.01,-26.02 -20,-8.671 -39.14,-16.171 -57.5,-22.5 -18.64,-6.32 -35.82,-9.492 -51.49,-9.492 -14.65,-0.347 -26.99,3.012 -36.99,10 -1.01,0.672 -1.99,1.024 -3.01,1.024 m 767,119.488 c -2,0 -3.48,-1.172 -4.5,-3.52 -8,-20 -23.83,-32.808 -47.5,-38.468 -23.98,-5.352 -51.99,-8.524 -83.98,-9.532 -29.02,-0.671 -57.7,-3.48 -86.02,-8.48 -28.32,-4.691 -53.16,-15.16 -74.49,-31.52 -21.33,-16.332 -36.17,-42.5 -44.49,-78.48 -0.35,-2.66 0.82,-4.488 3.48,-5.512 0.66,-0.347 1.17,-0.508 1.52,-0.508 1.99,0.36 3.48,1.329 4.49,3.008 13.67,22.66 34.65,37.352 63.01,43.992 28.32,6.36 59.49,10.192 93.48,11.52 29.02,1.328 56.67,4.34 83,8.98 26.33,5 48.32,15.161 66.02,30.508 17.97,15.352 28.32,39.492 30.98,72.5 0,3.012 -1.33,4.852 -3.99,5.512 -0.35,0 -0.66,0 -1.01,0 m -1604.501,0 c 0,0 -0.348,0 -1.008,0 -2.312,-0.66 -3.641,-2.5 -3.992,-5.512 3.012,-33.008 13.32,-57.148 31.019,-72.5 17.973,-15.347 40.153,-25.347 66.481,-30 26.332,-5 53.992,-8.16 83.012,-9.488 33.988,-1.328 65.16,-5.16 93.48,-11.52 28.008,-6.64 49.02,-21.332 63.008,-43.992 1.012,-1.988 2.34,-3.008 4.019,-3.008 0.661,0 1.332,0.161 1.993,0.508 2.339,1.024 3.32,2.852 3.007,5.512 -8.007,35.66 -22.699,61.84 -44.019,78.48 -21.328,16.36 -46.18,27.032 -74.5,32.032 -28.32,4.648 -56.988,7.297 -86.008,7.968 -31.992,1.008 -60,4.18 -83.992,9.532 -23.668,5.66 -39.488,18.468 -47.5,38.468 -1.008,2.348 -2.649,3.52 -5,3.52 m 412.5,-215 c -13.981,0 -26.988,-3.16 -38.981,-9.488 -12.027,-6.371 -19.847,-16.172 -23.519,-29.532 -1.988,-11.64 0.672,-22.308 8.012,-32 7.66,-8.98 17.339,-13.671 28.988,-13.98 1.32,0 2.5,0.16 3.512,0.512 17.339,1.636 35.507,6.476 54.488,14.488 18.992,8.32 38.172,17.66 57.5,28.012 16.332,8.629 32.66,16.636 48.992,23.976 16.359,7.66 32.027,13.172 47.027,16.492 2.301,0.661 3.633,2.18 3.981,4.532 0,2.648 -1.168,4.328 -3.508,5 -26.332,8.629 -50.32,19.328 -71.992,31.988 -14.649,8.32 -29.34,15.66 -43.988,21.988 -14.692,6.332 -30.352,10.672 -46.993,13.012 -5.668,0.66 -10.859,0.98 -15.507,0.98 -31.012,0 -49.692,-13.832 -56.012,-41.492 -0.32,-1.679 0,-3.16 1.012,-4.488 1.328,-1.02 2.66,-1.52 3.988,-1.52 0,0 0.152,0 0.5,0 1.68,0 3.32,0 5,0 9.652,0 18.832,-2.66 27.5,-7.968 8.32,-5.352 13.992,-12.192 17,-20.512 -2.66,0 -5,0 -7,0 m 772.001,75.98 c -5,0 -10.16,-0.32 -15.51,-0.98 -16.64,-2.34 -32.31,-6.68 -46.99,-13.012 -14.65,-6.328 -29.34,-13.668 -43.99,-21.988 -21.99,-12.66 -46.01,-23.359 -71.99,-31.988 -2.35,-0.672 -3.52,-2.352 -3.52,-5 0.35,-2.352 1.68,-3.871 3.99,-4.532 15,-3.32 30.66,-8.832 47.03,-16.492 16.33,-7.34 32.65,-15.347 48.98,-23.976 19.34,-10.352 38.52,-19.692 57.5,-28.012 18.99,-8.012 37.15,-12.852 54.5,-14.488 1.01,-0.352 1.99,-0.512 3,-0.512 12,0.309 21.84,5 29.5,13.98 7.34,9.692 10,20.36 8,32 -3.67,13.36 -11.48,23.161 -23.51,29.532 -11.99,6.328 -25,9.488 -38.99,9.488 -2.34,0 -4.65,0 -6.99,0 2.66,8.32 8.32,15.16 16.99,20.512 8.67,5.308 17.85,7.968 27.5,7.968 1.68,0.348 3.32,0.348 5,0 0,0 0.16,0 0.51,0 1.33,0 2.5,0.5 3.48,1.52 1.36,1.328 1.83,2.809 1.52,4.488 -6.68,27.66 -25.35,41.492 -56.01,41.492 m -382,8.508 c -1.99,0 -3.51,-1.008 -4.49,-3.008 -9.34,-19.332 -22.66,-35.66 -40,-48.98 -17.66,-13.359 -38.16,-22.66 -61.52,-28.012 -2.31,-0.66 -3.64,-2.148 -3.99,-4.488 0,-2.34 1.17,-4.02 3.52,-5 23.98,-8.359 44.65,-21.02 61.99,-38.012 17.66,-16.988 30.82,-37.34 39.49,-61.008 1.02,-2 2.66,-2.968 5,-2.968 2.35,0 3.83,0.968 4.5,2.968 9.02,23.668 22.34,44.02 40,61.008 17.34,16.992 38,29.653 61.99,38.012 2.34,0.98 3.51,2.66 3.51,5 -0.35,2.34 -1.68,3.828 -3.98,4.488 -23.36,5.352 -43.87,14.653 -61.52,28.012 -17.35,13.32 -30.67,29.648 -40,48.98 -0.98,2 -2.5,3.008 -4.5,3.008 M 742.379,151.48 c -1.68,0 -3,-0.66 -3.981,-1.992 -1.367,-2.34 -1.168,-4.488 0.473,-6.476 24.68,-23.672 53.16,-35.512 85.508,-35.512 21.992,0.66 44.332,5 66.992,13.012 22.34,7.968 44.68,17.148 67.027,27.5 21.332,10 41.992,18.629 61.992,25.968 20,7.348 39.34,11.18 58.01,11.532 15.66,0 29.8,-3.364 42.5,-10 0.66,-0.672 1.48,-1.024 2.5,-1.024 1.33,0 2.65,0.672 3.98,1.992 1.33,2.348 1.17,4.5 -0.5,6.532 -25.98,31.328 -58.01,46.828 -95.98,46.476 -24.02,-0.347 -48.17,-5.148 -72.502,-14.488 -24.687,-9.34 -49.019,-20 -73.007,-31.988 -20.661,-10.352 -40.512,-19.184 -59.493,-26.532 -19.019,-7.652 -36.519,-11.64 -52.5,-11.992 -10.668,0 -20.199,2.153 -28.519,6.492 -0.66,0.348 -1.481,0.5 -2.5,0.5 m 508.991,34.032 c 18.36,-0.352 37.69,-4.184 58.01,-11.532 20,-7.339 40.66,-15.968 61.99,-25.968 22.34,-10.352 44.68,-19.532 67.03,-27.5 22.65,-8.012 44.8,-12.352 66.48,-13.012 32.66,0 61.17,11.84 85.51,35.512 1.99,1.988 2.34,4.136 0.98,6.476 -1.33,1.332 -2.82,1.992 -4.49,1.992 -0.67,0 -1.33,-0.152 -2,-0.5 -8.32,-4.339 -17.85,-6.492 -28.51,-6.492 -15.98,0.352 -33.48,4.34 -52.5,11.992 -18.99,7.348 -38.99,16.18 -60,26.532 -23.99,11.988 -48.17,22.648 -72.5,31.988 -24.34,9.34 -48.48,14.141 -72.5,14.488 -37.97,0.352 -70.16,-15.148 -96.49,-46.476 -1.33,-2.032 -1.33,-4.184 0,-6.532 1.02,-1.32 2.35,-1.992 3.99,-1.992 1.01,0 1.83,0.352 2.5,1.024 12.69,6.636 26.83,10 42.5,10 m -25,-176.02372 c -8.32,0 -17.82,4.34372 -28.48,13.01172 -10.35,8.6719 -19.49,22.1484 -27.5,40.5117 L 1169.38,65 c -0.67,1.9883 -2.15,3.1602 -4.5,3.4805 -2.34,-0.3203 -3.83,-1.4922 -4.49,-3.4805 l -0.51,-1.5195 C 1151.56,44.8398 1142.03,31.1719 1131.37,22.5 1121.05,13.832 1111.72,9.48828 1103.4,9.48828 c -1.02,0 -1.84,0 -2.5,0 -6.37,1.02342 -11.84,4.18362 -16.52,9.49222 -3.33,3.6797 -4.65,9.8515 -3.99,18.5195 1.64,6.6406 5.51,12.6602 11.49,18.0117 6.32,5.3086 13.35,10.4688 21.01,15.4688 8.01,5.3476 14.84,10.8593 20.51,16.5195 6.99,6.9883 12.5,14.488 16.48,22.5 3.67,8.012 3.52,16.988 -0.5,26.988 -5.67,11.992 -17.82,18.172 -36.49,18.524 -16.33,-0.352 -33.83,-5.352 -52.5,-15 l -5,-2.5 c -20,-10 -42.85,-22.5 -68.511,-37.5 -42.66,-25.0003 -82.149,-37.5003 -118.481,-37.5003 -7.347,-0.3515 -14.527,0.1485 -21.519,1.4766 -7.348,1.0234 -15.828,2.8515 -25.508,5.5117 -30.32,8.0117 -55.32,22.5 -75,43.48 -27.66,29.329 -43.641,61.008 -47.973,95 -0.347,2.032 -1.679,3.36 -4.019,4.02 -0.32,0.309 -0.668,0.512 -0.981,0.512 -1.679,0 -3.007,-0.672 -4.019,-2.032 -7.348,-9.652 -16.84,-18.48 -28.481,-26.492 -11.679,-8.316 -25.347,-12.648 -41.019,-13.008 -2.34,0 -4.84,0.161 -7.5,0.508 -9.328,1.684 -16.328,7.153 -21.008,16.492 -1.332,2.692 -2.312,6.168 -2.973,10.5 -0.347,4.34 1.133,9.18 4.493,14.5 3.668,5.348 8.668,8.668 15,10 6.64,1.36 14.14,2.18 22.5,2.5 10,0 20.98,1.36 33.007,4.02 19.332,4.648 31.481,13.32 36.481,25.98 4.34,11.68 2.66,23.508 -5,35.5 -10.348,17.348 -39.649,25.86 -88,25.508 -20.32,0 -39.848,-0.66 -58.481,-1.988 l -5.507,-0.512 c -6.012,-0.347 -11.993,-0.508 -18.012,-0.508 -37.34,0 -70.5,7 -99.488,21.02 -28.672,13.672 -51.52,33.16 -68.512,58.48 -15,23.668 -23.328,49.18 -25,76.52 -1.649,27.34 3.512,54.84 15.5,82.5 0.672,1.988 0.351,3.828 -1.008,5.512 -0.98,0.968 -2.312,1.476 -3.992,1.476 -0.348,0 -0.82,0 -1.481,0 l -3.007,-1.476 c -1.993,-0.672 -4.18,-1.172 -6.52,-1.532 -12.312,-3.671 -23.641,-5.308 -33.992,-5 -16.68,0 -31.168,4.032 -43.508,12 -5.32,3.668 -8.641,8.161 -10,13.508 -1.332,5.352 -0.672,11.492 2.027,18.524 2.653,7.648 6.481,12.148 11.481,13.468 2.351,0.668 4.851,1.02 7.5,1.02 3.32,0 6.84,-0.66 10.512,-1.988 7.339,-2.352 15.66,-5.352 25,-9.032 0.66,-0.308 4.339,-1.832 10.98,-4.492 6.68,-2.648 11.828,-4.648 15.508,-6.008 7.652,-2.968 15.152,-4.5 22.5,-4.5 12.652,0 22.5,4.032 29.492,12 6.68,8 9.02,18.161 7.027,30.5 -1.367,8.68 -7.187,18.36 -17.5,29.032 -10.347,10.66 -24.527,20 -42.5,27.968 -18.359,7.692 -40.347,11.68 -66.019,12.032 -5,0.308 -10.348,0.148 -16.008,-0.512 -39.34,-3.672 -70.82,-9.691 -94.492,-18.012 -23.68,-8.316 -42.82,-16.679 -57.5001,-25 -17.6601,-10 -33.3281,-15.347 -47,-16.008 -4.6484,0 -9.6484,0.661 -15,2.032 -10.6601,3.629 -18.5078,10.308 -23.50781,20 -5.32031,10 -7.312496,20 -5.980465,30 3.320315,20 17.499975,30.148 42.499975,30.468 H 2286.37 c 25.35,-0.32 39.68,-10.468 43.01,-30.468 1.32,-10 -0.67,-20 -5.98,-30 -5,-9.692 -12.85,-16.371 -23.52,-20 -5.35,-1.371 -10.35,-2.032 -15,-2.032 -13.98,0.661 -29.65,6.008 -46.99,16.008 -14.69,8.321 -33.83,16.684 -57.5,25 -23.67,8.321 -55.16,14.34 -94.49,18.012 -5.67,0.309 -11.17,0.512 -16.52,0.512 -25.32,-0.352 -47.15,-4.532 -65.51,-12.5 -18.32,-7.703 -32.5,-16.84 -42.5,-27.5 -10.32,-10.672 -16.14,-20.352 -17.5,-29.032 -1.99,-12.339 0.35,-22.5 7.03,-30.5 6.99,-7.968 16.83,-12 29.49,-12 7.34,0 14.65,1.532 21.99,4.5 3.99,1.36 9.34,3.36 16.02,6.008 6.64,2.66 10.31,4.184 10.98,4.492 9.33,3.68 17.65,6.68 25,9.032 3.67,1.328 7.18,1.988 10.5,1.988 2.66,0 5.16,-0.352 7.5,-1.02 5,-1.32 8.83,-5.82 11.49,-13.468 2.69,-7.032 3.36,-13.172 2.03,-18.524 -1.68,-5.347 -5.2,-9.648 -10.51,-13.008 -11.99,-8.32 -26.33,-12.5 -43.01,-12.5 -10.66,0 -21.99,1.532 -33.98,4.5 -2.35,0.661 -4.53,1.36 -6.52,2.032 l -3.01,1.476 c -0.67,0 -1.33,0 -1.99,0 -1.33,0 -2.5,-0.508 -3.48,-1.476 -1.37,-1.684 -1.68,-3.524 -1.02,-5.512 12,-27.66 17.15,-55.16 15.51,-82.5 -1.68,-27.34 -10,-52.852 -25,-76.52 -16.99,-25.32 -40,-44.808 -69.02,-58.48 -28.99,-14.02 -61.99,-21.02 -98.99,-21.02 -6.01,0 -11.99,0.161 -18,0.508 l -5.51,0.512 c -18.99,0.98 -38.48,1.641 -58.48,1.988 -48.36,0.352 -77.85,-8.16 -88.51,-25.508 -7.35,-11.992 -8.99,-23.82 -5,-35.5 5.35,-12.66 17.65,-21.332 36.99,-25.98 11.68,-2.66 22.69,-4.02 33.01,-4.02 8.35,-0.32 15.66,-1.14 21.99,-2.5 6.68,-1.332 11.83,-4.652 15.51,-10 3,-5.32 4.33,-10.16 4.02,-14.5 -0.35,-4.332 -1.17,-7.808 -2.5,-10.5 -5,-9.339 -12.03,-14.808 -21.02,-16.492 -2.65,-0.347 -5.35,-0.508 -8,-0.508 -15.67,0.36 -29.34,4.692 -40.98,13.008 -11.37,8.012 -20.67,16.84 -28.01,26.492 -1.01,1.36 -2.34,2.032 -4.02,2.032 -0.32,0 -0.82,-0.203 -1.49,-0.512 -1.99,-0.66 -3.16,-1.988 -3.51,-4.02 -4.34,-33.992 -20.47,-65.671 -48.48,-95 C 1563.2,92.5 1538.4,78.0117 1508.4,70 c -9.69,-2.6602 -18.17,-4.4883 -25.51,-5.5117 -6.99,-1.0078 -14.34,-1.4766 -21.99,-1.4766 -36.02,0 -75.35,12.5 -118.01,37.5003 -25.66,15 -48.51,27.5 -68.51,37.5 l -5,2.5 c -18.68,9.648 -36.18,14.648 -52.5,15 -18.99,-0.352 -31.18,-6.532 -36.49,-18.524 -4.02,-10 -4.18,-18.976 -0.51,-26.988 3.67,-8.012 8.99,-15.5117 16.02,-22.5 5.98,-5.6602 12.97,-11.1719 20.98,-16.5195 7.65,-5 14.68,-10.1602 21.01,-15.4688 5.98,-5.3515 9.84,-11.3711 11.49,-18.0117 0.66,-8.668 -0.83,-14.8398 -4.5,-18.5195 -4.33,-5.3086 -9.65,-8.4688 -16.01,-9.49222 -0.67,0 -1.49,0 -2.5,0" /><path
         id="path18"
         style="fill:#707882;fill-opacity:1;fill-rule:evenodd;stroke:none"
         d="m 257.578,1173.55 c 5.473,0 10.781,0.16 15.973,0.43 5.199,0.28 10.828,0.59 16.84,1.02 6.019,0.39 10.937,0.74 14.769,1.02 0.539,-1.1 0.738,-3.36 0.578,-6.76 -0.117,-3.44 -0.578,-5.12 -1.398,-5.12 -2.738,0 -7.66,-0.98 -14.77,-2.89 -7.109,-1.91 -10.941,-3.83 -11.48,-5.74 -2.469,-9.57 -3.711,-22.27 -3.711,-38.13 v -66.87 l 2.891,-2.46 h 2.851 c 8.75,0 16.68,3.98 23.789,11.91 31.988,35.82 55.5,63.56 70.539,83.24 6.571,7.93 9.852,13.13 9.852,15.59 0,4.65 -7.781,6.99 -23.36,6.99 -1.101,0 -1.64,1.21 -1.64,3.67 0,2.46 0.269,4.65 0.82,6.57 3.551,-0.28 8.199,-0.63 13.938,-1.02 5.742,-0.43 11.062,-0.74 15.98,-1.02 4.922,-0.27 9.57,-0.43 13.941,-0.43 6.84,0 14.649,0.36 23.399,1.02 8.75,0.7 14.769,1.17 18.051,1.45 0.55,-1.1 0.742,-3.09 0.59,-5.94 -0.122,-2.89 -0.59,-4.3 -1.411,-4.3 -16.679,-1.91 -29.257,-7.66 -37.73,-17.23 l -82.469,-95.97 c -2.18,-2.46 -1.211,-6.17 2.891,-11.1 l 98.828,-108.671 c 4.383,-4.649 10.121,-8.469 17.23,-11.477 7.11,-3.012 12.661,-4.812 16.602,-5.352 3.988,-0.55 7.187,-0.82 9.648,-0.82 1.371,0 2.071,-2.461 2.071,-7.39 0,-1.911 -0.27,-3.391 -0.821,-4.489 -27.339,1.367 -44.3,2.028 -50.859,2.028 -6.84,0 -13.012,-0.11 -18.48,-0.387 -5.469,-0.274 -11.598,-0.543 -18.43,-0.82 -6.84,-0.27 -13.012,-0.551 -18.481,-0.821 -1.089,1.098 -1.64,3.321 -1.64,6.758 0,3.402 0.551,5.121 1.64,5.121 3.282,0 7.032,0.539 11.289,1.641 4.223,1.09 6.372,2.73 6.372,4.918 0,8.75 -31.059,45 -93.129,108.711 -1.09,1.09 -5.039,1.64 -11.871,1.64 -1.918,0 -2.891,-1.09 -2.891,-3.28 v -67.27 c 0,-15.86 1.242,-28.59 3.711,-38.161 0.539,-1.91 4.371,-3.75 11.48,-5.55 7.11,-1.758 12.032,-2.649 14.77,-2.649 0.82,0 1.281,-1.64 1.398,-4.93 0.16,-3.281 -0.039,-5.582 -0.578,-6.949 -27.351,1.367 -43.211,2.028 -47.582,2.028 -1.367,0 -17.777,-0.661 -49.219,-2.028 -1.089,1.098 -1.64,3.129 -1.64,6.129 0,3.828 0.551,5.75 1.64,5.75 3.551,0 8.789,0.82 15.782,2.461 6.949,1.641 10.859,3.551 11.679,5.738 1.91,7.379 2.891,19.571 2.891,36.52 v 159.141 c 0,16.96 -0.981,29.1 -2.891,36.49 -0.82,2.19 -4.73,4.18 -11.679,5.94 -6.993,1.79 -12.231,2.69 -15.782,2.69 -1.089,0 -1.64,1.76 -1.64,5.31 0,3.28 0.551,5.47 1.64,6.57 3.551,-0.28 10.782,-0.75 21.719,-1.45 10.942,-0.66 20.121,-1.02 27.5,-1.02 z m 362.582,2.9 3.668,-1.25 82.031,-216.571 c 4.922,-12.848 8.911,-22.688 11.911,-29.527 1.64,-4.102 5.859,-7.461 12.699,-10.043 6.832,-2.61 11.91,-3.899 15.191,-3.899 1.102,0 1.641,-2.578 1.641,-7.781 0,-1.09 -0.27,-2.457 -0.821,-4.098 -27.339,1.367 -42.378,2.028 -45.109,2.028 -0.281,0 -16.141,-0.661 -47.582,-2.028 -1.09,1.098 -1.598,3.321 -1.449,6.758 0.121,3.402 0.75,5.121 1.84,5.121 3.281,0 7.379,0.699 12.3,2.07 4.93,1.36 7.821,3.122 8.641,5.309 0.539,2.191 0.82,4.371 0.82,6.563 0,3.558 -0.511,7.738 -1.453,12.5 -0.968,4.808 -1.828,8.558 -2.648,11.289 l -1.641,4.531 -16.84,46.328 c -0.82,1.09 -1.64,1.64 -2.461,1.64 -10.668,0.82 -21.058,1.25 -31.168,1.25 -14.218,0 -31.57,-0.7 -52.07,-2.07 l -2.07,-1.21 -17.621,-45.122 c -4.649,-13.668 -6.989,-23.117 -6.989,-28.316 0,-3.832 1.09,-6.563 3.282,-8.203 2.457,-1.918 6.437,-3.481 11.91,-4.731 5.469,-1.207 9.418,-1.828 11.879,-1.828 0.82,0 1.289,-1.64 1.437,-4.93 0.121,-3.281 -0.078,-5.582 -0.617,-6.949 -27.351,1.367 -41.41,2.028 -42.23,2.028 -5.469,0 -10.27,-0.11 -14.371,-0.387 -4.11,-0.274 -8.68,-0.543 -13.75,-0.82 -5.04,-0.27 -9.891,-0.551 -14.54,-0.821 -1.089,1.098 -1.64,3.129 -1.64,6.129 0,3.828 0.551,5.75 1.64,5.75 3.29,0 7.5,0.699 12.7,2.07 5.199,1.36 8.75,3.282 10.66,5.739 5.75,7.383 12.191,20.23 19.301,38.551 l 71.371,183.32 c 0.539,1.37 1.289,3.56 2.218,6.57 0.981,3 1.719,5.27 2.27,6.75 0.551,1.53 1.371,3.44 2.461,5.75 1.09,2.34 2.07,4.06 2.891,5.15 0.82,1.1 1.839,2.31 3.046,3.67 1.25,1.37 2.622,2.35 4.102,2.89 1.52,0.55 3.238,0.83 5.16,0.83 z m -43.91,-149.3 c 14.219,-0.55 23.949,-0.82 29.141,-0.82 12.031,0 24.449,0.39 37.308,1.21 l 1.25,2.07 -33.25,90.62 -35.269,-91.44 c 0,-1.09 0.269,-1.64 0.82,-1.64 z m 296.129,130 c -12.301,0 -21.867,-0.94 -28.707,-2.85 -1.094,-0.28 -1.992,-1.33 -2.652,-3.09 -0.711,-1.8 -1.25,-5.9 -1.641,-12.3 -0.43,-6.45 -0.629,-16.33 -0.629,-29.73 v -49.65 c 0,-7.93 11.91,-11.87 35.699,-11.87 h 10.242 c 9.571,0 19.489,4.76 29.719,14.33 10.281,9.57 15.391,22.31 15.391,38.17 0,38 -19.141,56.99 -57.422,56.99 z m 6.57,18.05 c 9.289,0 18.75,-1.37 28.321,-4.11 9.57,-2.73 18.98,-6.83 28.281,-12.3 9.289,-5.47 16.949,-13.24 22.969,-23.36 6.011,-10.12 9.019,-21.88 9.019,-35.27 0,-11.49 -4.301,-23.52 -12.93,-36.1 -8.589,-12.58 -20.269,-22.3 -35.039,-29.14 -2.73,-1.09 -3.55,-2.46 -2.461,-4.1 13.672,-28.71 29.371,-52.769 47.153,-72.191 26.25,-28.707 47.578,-43.039 63.978,-43.039 0.82,-1.641 1.25,-3.559 1.25,-5.75 0,-2.461 -0.43,-4.531 -1.25,-6.168 -3.01,-0.82 -6.68,-1.211 -11.05,-1.211 -38.28,0 -71.53,19.687 -99.69,59.059 -4.379,6.019 -9.379,13.171 -14.961,21.531 -5.629,8.32 -9.73,14.328 -12.309,18.039 -2.609,3.68 -5.621,7.74 -9.019,12.11 -3.441,4.38 -6.441,7.66 -9.02,9.85 -2.621,2.18 -5.39,3.94 -8.402,5.31 -3.008,1.09 -8.09,1.64 -15.199,1.64 -2.18,0 -3.82,-0.08 -4.918,-0.2 -1.094,-0.15 -2.192,-0.74 -3.281,-1.83 -1.09,-1.09 -1.641,-2.74 -1.641,-4.92 v -60.32 c 0,-18.32 1.09,-30.191 3.281,-35.66 1.367,-3.55 6.207,-6.449 14.571,-8.629 8.32,-2.191 14.296,-3.281 17.847,-3.281 1.102,0 1.641,-1.922 1.641,-5.75 0,-2.461 -0.27,-4.488 -0.82,-6.129 -27.34,1.367 -45.11,2.028 -53.321,2.028 l -50.039,-2.028 c -0.82,0.821 -1.25,3.278 -1.25,7.379 0,3.559 0.43,5.32 1.25,5.32 3.828,0 9.141,0.821 15.981,2.461 6.839,1.641 10.937,3.707 12.308,6.168 1.91,3.282 2.891,16.129 2.891,38.551 v 155.04 c 0,16.14 -0.981,27.89 -2.891,35.28 -0.82,2.18 -4.847,4.22 -12.109,6.13 -7.231,1.91 -12.621,2.89 -16.18,2.89 -1.09,0 -1.64,1.64 -1.64,4.92 0,3.56 0.55,5.86 1.64,6.96 l 49.219,-0.83 c 8.211,0 17.891,0.28 29.101,0.83 11.219,0.54 20.79,0.82 28.719,0.82 z m 237.691,-0.82 c 18.71,-0.55 34.1,-0.83 46.13,-0.83 12.03,0 27.5,0.28 46.37,0.83 18.87,0.54 33.48,0.82 43.87,0.82 6.83,0 16.29,1.52 28.32,4.53 l 7.77,-58.68 c -1.91,-1.91 -5.19,-2.85 -9.84,-2.85 -2.46,0 -3.83,0.67 -4.1,2.03 -3.83,15.32 -8.56,25.24 -14.14,29.73 -5.63,4.53 -16.22,6.8 -31.8,6.8 -28.99,0 -44.02,-2.07 -45.12,-6.17 -2.46,-8.75 -3.67,-22.43 -3.67,-41.02 V 961.52 c 0,-15.86 1.21,-28.59 3.67,-38.161 0.55,-1.91 4.38,-3.75 11.49,-5.55 7.11,-1.758 12.03,-2.649 14.76,-2.649 1.1,0 1.64,-2.039 1.64,-6.14 0,-2.18 -0.27,-4.098 -0.82,-5.739 -27.34,1.367 -43.2,2.028 -47.58,2.028 -1.36,0 -17.77,-0.661 -49.21,-2.028 -1.1,1.098 -1.65,3.129 -1.65,6.129 0,3.828 0.55,5.75 1.65,5.75 3.55,0 8.82,0.82 15.78,2.461 6.99,1.641 10.89,3.551 11.72,5.738 1.91,7.379 2.85,19.571 2.85,36.52 v 148.481 c 0,23.79 -1.21,37.85 -3.68,42.23 -2.18,4.1 -16.95,6.17 -44.29,6.17 -15.59,0 -26.21,-2.27 -31.8,-6.8 -5.62,-4.49 -10.31,-14.41 -14.14,-29.73 -0.27,-1.36 -1.64,-2.03 -4.1,-2.03 -4.65,0 -7.93,0.94 -9.84,2.85 l 7.77,58.68 c 12.03,-3.01 21.48,-4.53 28.32,-4.53 10.39,0 24.92,-0.28 43.67,-0.82 z m 325.86,-13.52 c -25.98,0 -46.48,-11.37 -61.52,-34.06 -15.04,-22.7 -22.54,-48.95 -22.54,-78.75 0,-21.88 3.55,-42.5 10.66,-61.921 7.11,-19.41 18.17,-35.617 33.2,-48.629 15.04,-12.969 32.7,-19.449 52.93,-19.449 17.5,0 32.82,5.66 45.94,16.988 13.13,11.371 22.74,25.43 28.91,42.262 6.13,16.801 9.22,34.809 9.22,53.949 0,21.87 -3.56,42.42 -10.67,61.72 -7.11,19.26 -18.16,35.39 -33.2,48.4 -15.04,12.97 -32.7,19.49 -52.93,19.49 z m -86.33,-219.84 c -25.58,27.07 -38.36,59.72 -38.36,98 0,38.28 12.78,71.02 38.36,98.25 25.55,27.18 56.41,40.82 92.5,40.82 36.1,0 66.99,-13.64 92.7,-40.82 25.7,-27.23 38.55,-59.97 38.55,-98.25 0,-38.28 -12.85,-70.93 -38.55,-98 -25.71,-27.071 -56.6,-40.629 -92.7,-40.629 -36.09,0 -66.95,13.558 -92.5,40.629 z m 468.21,50.859 v 127.531 c 0,16.68 -0.98,28.71 -2.9,36.1 -0.82,2.19 -5.54,4.29 -14.14,6.37 -8.63,2.03 -14.68,3.08 -18.24,3.08 -1.09,0 -1.64,1.56 -1.64,4.69 0,3.16 0.55,5.27 1.64,6.37 3.56,-0.28 10.67,-0.75 21.33,-1.45 10.66,-0.66 19.69,-1.02 27.07,-1.02 7.11,0 16.05,0.43 26.84,1.25 10.82,0.82 17.18,1.22 19.1,1.22 0.54,-1.64 0.82,-3.68 0.82,-6.14 0,-3.28 -0.55,-4.92 -1.64,-4.92 -2.74,0 -8.71,-1.09 -17.85,-3.28 -9.18,-2.19 -14.03,-4.26 -14.57,-6.17 -2.19,-8.48 -3.29,-21.17 -3.29,-38.13 V 961.52 c 0,-16.95 0.43,-36.09 1.25,-57.418 -1.09,-1.09 -3.71,-1.641 -7.81,-1.641 -4.65,0 -9.14,3.129 -13.51,9.418 L 1667.7,1137.46 V 962.34 c 0,-18.039 0.93,-30.781 2.85,-38.16 0.54,-1.91 5.11,-3.91 13.75,-5.942 8.59,-2.066 14.29,-3.078 17.03,-3.078 0.82,0 1.29,-1.64 1.4,-4.93 0.16,-3.281 -0.03,-5.582 -0.58,-6.949 -27.35,1.367 -43.09,2.028 -47.19,2.028 l -47.15,-2.028 c -0.82,0.821 -1.25,2.848 -1.25,6.129 0,3.828 0.43,5.75 1.25,5.75 3.83,0 10.04,1.012 18.64,3.078 8.63,2.032 13.35,4.301 14.17,6.762 2.74,7.109 4.11,19.961 4.11,38.551 v 161.219 c 0,13.39 -0.98,23.63 -2.89,30.74 -0.82,2.19 -5.47,4.18 -13.95,5.94 -8.48,1.79 -14.61,2.69 -18.44,2.69 -1.09,0 -1.64,1.68 -1.64,5.12 0,3.4 0.55,5.66 1.64,6.76 21.33,-0.55 35.28,-0.82 41.84,-0.82 14.22,0 25.16,0.27 32.81,0.82 10.12,-18.6 56.45,-85.59 139.02,-200.981 0.83,4.652 1.26,10.27 1.26,16.84 z m 132.07,181.671 c 12.3,0 33.63,0.55 63.98,1.65 30.35,1.09 53.16,1.64 68.48,1.64 1.09,-7.93 3.2,-18.4 6.36,-31.37 3.13,-13.01 5,-21.13 5.55,-24.42 -1.37,-1.36 -3.83,-2.03 -7.38,-2.03 -3.56,0 -5.47,0.94 -5.74,2.86 -4.11,15.03 -9.85,24.68 -17.23,28.9 -7.38,4.26 -17.5,6.37 -30.35,6.37 h -27.5 c -23.52,0 -35.55,-1.76 -36.1,-5.31 -1.36,-6.57 -2.03,-18.05 -2.03,-34.46 v -65.62 c 0,-1.64 5.86,-2.46 17.62,-2.46 h 21.76 c 7.65,0 13.16,0 16.6,0 3.4,0 7.03,0.54 10.86,1.64 3.83,1.09 6.29,1.76 7.38,2.03 1.09,0.27 2.54,2.07 4.3,5.35 1.79,3.28 2.81,5.66 3.08,7.15 0.28,1.52 1.25,5.43 2.89,11.72 0.28,1.91 2.31,2.85 6.14,2.85 3.28,0 5.62,-0.66 6.99,-2.03 v -77.54 c -1.09,-1.091 -3.28,-1.638 -6.56,-1.638 -3.56,0 -5.75,1.09 -6.57,3.278 -1.91,7.38 -3.55,12.93 -4.92,16.6 -1.36,3.71 -2.42,5.9 -3.08,6.56 -0.71,0.71 -1.84,1.61 -3.48,2.7 -3.55,2.19 -18.05,3.28 -43.48,3.28 -19.68,0 -29.53,-1.25 -29.53,-3.71 v -63.56 c 0,-17.769 1.21,-30.23 3.67,-37.339 0.82,-2.731 10.12,-4.102 27.89,-4.102 h 19.69 c 25.43,0 42.66,2.34 51.68,6.992 4.1,2.188 8.67,7.028 13.75,14.528 5.04,7.543 9.1,16.492 12.11,26.882 0.55,1.641 2.46,2.457 5.74,2.457 5.2,0 8.6,-0.816 10.24,-2.457 -1.37,-3.562 -3.48,-9.222 -6.37,-17.031 -2.85,-7.781 -5.12,-14.07 -6.76,-18.871 -1.64,-4.769 -3.4,-10.309 -5.31,-16.598 -1.91,-6.293 -3.16,-11.492 -3.71,-15.589 -13.95,0 -35.94,0.269 -66.02,0.82 -30.07,0.547 -54.68,0.816 -73.82,0.816 l -49.65,-1.207 c -0.82,0.821 -1.21,3.008 -1.21,6.559 0,3.558 0.39,5.32 1.21,5.32 3.55,0 8.83,0.969 15.78,2.891 6.99,1.91 11.17,4.097 12.54,6.558 1.91,3.282 2.85,16.129 2.85,38.551 v 155.04 c 0,16.14 -0.94,27.89 -2.85,35.28 -0.82,2.18 -4.89,4.22 -12.11,6.13 -7.27,1.91 -12.66,2.89 -16.21,2.89 -1.1,0 -1.64,1.64 -1.64,4.92 0,3.56 0.54,5.86 1.64,6.96 14.22,-0.55 30.5,-0.83 48.83,-0.83 z m 96.79,17.23 c -5.19,0 -19.57,7.93 -43.08,23.79 -6.57,-4.92 -14.61,-10.12 -24.18,-15.59 -9.57,-5.46 -15.59,-8.2 -18.05,-8.2 -2.73,0 -4.1,2.74 -4.1,8.2 1.09,1.1 4.57,4.3 10.43,9.65 5.9,5.32 10.74,9.77 14.57,13.32 7.65,7.11 13.4,13.4 17.22,18.87 1.92,2.19 3.29,3.28 4.11,3.28 1.64,0 3.16,-1.09 4.53,-3.28 5.74,-7.66 11.33,-14.22 16.79,-19.69 3.56,-3.28 7.47,-6.75 11.68,-10.47 4.26,-3.67 7.62,-6.48 10.08,-8.39 2.46,-1.92 3.67,-3.01 3.67,-3.29 0,-5.46 -1.21,-8.2 -3.67,-8.2 z" /></g></g></svg>